{
	"asset":{
		"generator":"Khronos glTF Blender I/O v3.5.30",
		"version":"2.0"
	},
	"scene":0,
	"scenes":[
		{
			"name":"Scene",
			"nodes":[
				0
			]
		}
	],
	"nodes":[
		{
			"mesh":0,
			"name":"Cylinder.009_Cylinder.015",
			"rotation":[
				0.7071068286895752,
				0,
				0,
				0.7071068286895752
			]
		}
	],
	"meshes":[
		{
			"name":"Cylinder.009_Cylinder.015",
			"primitives":[
				{
					"attributes":{
						"COLOR_0":0,
						"POSITION":1,
						"NORMAL":2
					},
					"indices":3
				}
			]
		}
	],
	"accessors":[
		{
			"bufferView":0,
			"componentType":5123,
			"count":23727,
			"normalized":true,
			"type":"VEC4"
		},
		{
			"bufferView":1,
			"componentType":5126,
			"count":23727,
			"max":[
				3.6145339012145996,
				1.9650959968566895,
				1.6713709831237793
			],
			"min":[
				-1.9181619882583618,
				-0.3433719873428345,
				-0.2586680054664612
			],
			"type":"VEC3"
		},
		{
			"bufferView":2,
			"componentType":5126,
			"count":23727,
			"type":"VEC3"
		},
		{
			"bufferView":3,
			"componentType":5123,
			"count":113232,
			"type":"SCALAR"
		}
	],
	"bufferViews":[
		{
			"buffer":0,
			"byteLength":189816,
			"byteOffset":0,
			"target":34962
		},
		{
			"buffer":0,
			"byteLength":284724,
			"byteOffset":189816,
			"target":34962
		},
		{
			"buffer":0,
			"byteLength":284724,
			"byteOffset":474540,
			"target":34962
		},
		{
			"buffer":0,
			"byteLength":226464,
			"byteOffset":759264,
			"target":34963
		}
	],
	"buffers":[
		{
			"byteLength":985728,
			"uri":"data:application/octet-stream;base64,"
		}
	]
}
